<svg xmlns="http://www.w3.org/2000/svg" xmlns:xlink="http://www.w3.org/1999/xlink" xmlns:inkscape="http://www.inkscape.org/namespaces/inkscape" version="1.1" width="328" height="210" viewBox="0 0 328 210">
<defs>
<clipPath id="clip_0">
<path transform="matrix(1.00023,0,0,1.00023,0,-.047851564)" d="M0 0H328V210H0V0Z"/>
</clipPath>
</defs>
<g clip-path="url(#clip_0)">
<path transform="matrix(1.00023,0,0,1.00023,0,-.047851564)" stroke-width="0" stroke-linecap="butt" stroke-miterlimit="10" stroke-linejoin="miter" fill="none" stroke="#81bcd1" d="M86.75 28.29C86.75 22.62 82.16 18.03 76.49 18.03 70.82 18.03 66.23 22.62 66.23 28.29 66.23 33.96 70.82 38.55 76.49 38.55 82.16 38.55 86.75 33.96 86.75 28.29"/>
<path transform="matrix(1.00023,0,0,1.00023,0,-.047851564)" stroke-width="0" stroke-linecap="butt" stroke-miterlimit="10" stroke-linejoin="miter" fill="none" stroke="#c9bd81" d="M137.75 28.28C137.75 22.61 133.16 18.02 127.49 18.02 121.82 18.02 117.23 22.61 117.23 28.28 117.23 33.95 121.82 38.54 127.49 38.54 133.16 38.54 137.75 33.95 137.75 28.28"/>
<path transform="matrix(1.00023,0,0,1.00023,0,-.047851564)" stroke-width="0" stroke-linecap="butt" stroke-miterlimit="10" stroke-linejoin="miter" fill="none" stroke="#81bcd1" d="M80.09 39.59C76.78 40.67 73.25 40.18 69.49 38.12 68.97 37.83 68.32 37.85 67.81 38.18L58.35 44.2C58.08 44.38 58 44.74 58.17 45L61.52 50.26C61.76 50.64 62.28 50.74 62.65 50.48 68.19 46.59 74.2 43.6 80.7 41.48 87.2 39.35 93.83 38.21 100.59 38.08 101.04 38.07 101.4 37.68 101.37 37.23L100.97 31.02C100.95 30.7 100.67 30.46 100.35 30.47L89.16 31.2C88.56 31.24 88.02 31.6 87.77 32.15 85.95 36.03 83.39 38.5 80.09 39.59"/>
<path transform="matrix(1.00023,0,0,1.00023,0,-.047851564)" stroke-width="0" stroke-linecap="butt" stroke-miterlimit="10" stroke-linejoin="miter" fill="none" stroke="#c9bd81" d="M123.83 39.59C120.51 38.5 117.93 36.02 116.11 32.13 115.85 31.58 115.32 31.22 114.71 31.18L103.48 30.46C103.16 30.44 102.88 30.68 102.86 31L102.46 37.24C102.43 37.69 102.79 38.08 103.25 38.09 110.03 38.22 116.68 39.35 123.2 41.48 129.73 43.6 135.77 46.61 141.33 50.5 141.7 50.76 142.22 50.66 142.47 50.28L145.82 45.01C145.99 44.74 145.91 44.38 145.64 44.2L136.14 38.16C135.63 37.84 134.98 37.82 134.45 38.11 130.69 40.18 127.14 40.67 123.83 39.59"/>
<path transform="matrix(1.00023,0,0,1.00023,0,-.047851564)" stroke-width="0" stroke-linecap="butt" stroke-miterlimit="10" stroke-linejoin="miter" fill="none" stroke="#c69897" d="M44.94 65.34C42.89 68.18 39.72 69.88 35.44 70.43 34.84 70.5 34.32 70.9 34.1 71.47L29.96 81.99C29.84 82.29 29.99 82.63 30.29 82.75L36.13 85.05C36.56 85.21 37.04 84.99 37.19 84.56 39.4 78.11 42.52 72.09 46.57 66.51 50.6 60.92 55.33 56.07 60.77 51.95 61.13 51.67 61.19 51.14 60.9 50.79L56.89 45.96C56.68 45.72 56.31 45.68 56.06 45.89L47.37 53.12C46.9 53.51 46.68 54.12 46.8 54.72 47.62 58.95 47 62.49 44.94 65.34"/>
<path transform="matrix(1.00023,0,0,1.00023,0,-.047851564)" stroke-width="0" stroke-linecap="butt" stroke-miterlimit="10" stroke-linejoin="miter" fill="none" stroke="#c69897" d="M45.55 58.26C45.55 52.58 40.95 47.98 35.27 47.98 29.59 47.98 24.99 52.58 24.99 58.26 24.99 63.94 29.59 68.54 35.27 68.54 40.95 68.54 45.55 63.94 45.55 58.26"/>
<path transform="matrix(1.00023,0,0,1.00023,0,-.047851564)" stroke-width="0" stroke-linecap="butt" stroke-miterlimit="10" stroke-linejoin="miter" fill="none" stroke="#808080" d="M56.4 68.42 56.25 68.63C56.22 68.67 56.22 68.73 56.26 68.76L95.81 104.26C96.01 104.44 96.01 104.74 95.81 104.92 88.95 111.03 82 117.26 74.96 123.59 74.71 123.81 74.71 124.11 74.94 124.5 75.02 124.63 75.14 124.71 75.3 124.74 75.44 124.77 75.58 124.74 75.72 124.66 91.04 115.97 102.29 109.6 109.48 105.56 109.73 105.42 109.75 105.07 109.52 104.91L56.93 68.34C56.76 68.22 56.52 68.25 56.4 68.42"/>
<path transform="matrix(1.00023,0,0,1.00023,0,-.047851564)" stroke-width="0" stroke-linecap="butt" stroke-miterlimit="10" stroke-linejoin="miter" fill="none" stroke="#81bcd1" d="M134.34 94.99C136.18 94.99 137.33 94.99 137.77 94.99 138.15 94.99 138.49 95.23 138.62 95.6L139.93 99.46C140.14 100.09 140.73 100.52 141.39 100.52H147.08C147.61 100.52 147.99 100 147.82 99.49L139.02 73.53C138.97 73.37 138.82 73.26 138.65 73.26 137.28 73.24 135.84 73.24 134.34 73.24 132.84 73.24 131.4 73.24 130.02 73.26 129.86 73.26 129.71 73.37 129.65 73.53L120.85 99.49C120.68 100 121.06 100.52 121.59 100.52H127.28C127.95 100.52 128.53 100.09 128.74 99.46L130.05 95.6C130.18 95.23 130.52 94.99 130.91 94.99 131.35 94.99 132.49 94.99 134.34 94.99"/>
<path transform="matrix(1.00023,0,0,1.00023,0,-.047851564)" stroke-width="0" stroke-linecap="butt" stroke-miterlimit="10" stroke-linejoin="miter" fill="none" stroke="#81bcd1" d="M151.13 73.24C150.91 73.24 150.74 73.41 150.74 73.63V100.12C150.74 100.34 150.91 100.51 151.13 100.51H168.61C168.83 100.51 169 100.34 169 100.12V94.62C169 94.4 168.83 94.23 168.61 94.23H158.39C158.17 94.23 158 94.06 158 93.84V73.63C158 73.41 157.83 73.24 157.61 73.24H151.13"/>
<path transform="matrix(1.00023,0,0,1.00023,0,-.047851564)" stroke-width="0" stroke-linecap="butt" stroke-miterlimit="10" stroke-linejoin="miter" fill="none" stroke="#81bcd1" d="M183.82 100.77C188.36 100.77 192.11 99.25 194.42 95.33 195.11 94.16 195.46 92.06 195.47 89.03 195.48 82.01 195.47 76.91 195.45 73.73 195.45 73.46 195.23 73.25 194.96 73.25H188.55C188.29 73.25 188.08 73.46 188.08 73.71 188.07 78.03 188.07 82.06 188.08 85.8 188.08 89.72 188.58 94.29 183.82 94.29 179.05 94.29 179.56 89.72 179.57 85.8 179.59 82.06 179.59 78.02 179.58 73.7 179.58 73.45 179.37 73.24 179.11 73.24H172.7C172.43 73.24 172.21 73.45 172.21 73.72 172.19 76.9 172.18 82 172.17 89.02 172.18 92.04 172.52 94.14 173.22 95.32 175.53 99.24 179.27 100.77 183.82 100.77"/>
<path transform="matrix(1.00023,0,0,1.00023,0,-.047851564)" stroke-width="0" stroke-linecap="butt" stroke-miterlimit="10" stroke-linejoin="miter" fill="none" stroke="#81bcd1" d="M214.45 100.26C215.52 100.26 216.12 100.26 216.26 100.25 216.61 100.23 216.92 100.01 217.05 99.68L222.08 86.87C222.16 86.67 222.45 86.73 222.45 86.94V100.18C222.45 100.35 222.59 100.49 222.77 100.49H229.28C229.45 100.49 229.58 100.36 229.58 100.19V73.91C229.58 73.53 229.28 73.23 228.9 73.23H221.53C221.14 73.23 220.79 73.46 220.64 73.82 219.36 76.85 217.47 81.49 214.96 87.74 214.78 88.17 214.62 88.39 214.46 88.39 214.29 88.39 214.11 88.18 213.94 87.74 211.42 81.49 209.52 76.85 208.24 73.83 208.09 73.47 207.74 73.24 207.35 73.24L199.98 73.25C199.6 73.25 199.3 73.55 199.3 73.93L199.33 100.21C199.33 100.37 199.47 100.51 199.63 100.51L206.14 100.5C206.32 100.5 206.46 100.36 206.46 100.19L206.45 86.95C206.44 86.74 206.74 86.68 206.82 86.88L211.86 99.68C212 100.01 212.3 100.23 212.65 100.25 212.79 100.26 213.39 100.26 214.45 100.26"/>
<path transform="matrix(1.00023,0,0,1.00023,0,-.047851564)" stroke-width="0" stroke-linecap="butt" stroke-miterlimit="10" stroke-linejoin="miter" fill="none" stroke="#81bcd1" d="M242.47 88.59C243.66 90.31 246.28 94.11 250.34 99.99 250.55 100.3 250.91 100.49 251.29 100.49H256.23C256.55 100.49 256.81 100.23 256.81 99.91V73.59C256.81 73.39 256.64 73.22 256.44 73.22H249.77C249.57 73.22 249.41 73.38 249.41 73.58V86.7C249.41 86.92 249.12 87 249.01 86.82 248.59 86.16 248.21 85.59 247.88 85.11 246.69 83.4 244.07 79.6 240.01 73.71 239.8 73.4 239.44 73.21 239.06 73.21H234.12C233.8 73.21 233.54 73.47 233.54 73.79V100.11C233.54 100.32 233.71 100.48 233.91 100.48H240.58C240.78 100.48 240.94 100.32 240.94 100.12V87C240.94 86.78 241.23 86.7 241.34 86.88 241.76 87.54 242.14 88.11 242.47 88.59"/>
<path transform="matrix(1.00023,0,0,1.00023,0,-.047851564)" stroke-width="0" stroke-linecap="butt" stroke-miterlimit="10" stroke-linejoin="miter" fill="none" stroke="#81bcd1" d="M268 73.63C268 73.41 267.83 73.24 267.61 73.24H261.13C260.91 73.24 260.74 73.41 260.74 73.63V100.13C260.74 100.35 260.91 100.52 261.13 100.52H267.61C267.83 100.52 268 100.35 268 100.13V73.63"/>
<path transform="matrix(1.00023,0,0,1.00023,0,-.047851564)" stroke-width="0" stroke-linecap="butt" stroke-miterlimit="10" stroke-linejoin="miter" fill="none" stroke="#e0a3ca" d="M31.47 106.75C31.48 110.16 29.97 113.34 26.93 116.29 26.47 116.74 26.28 117.4 26.42 118.02L28.99 129.39C29.04 129.61 29.27 129.74 29.49 129.67L36.73 127.22C36.85 127.17 36.92 127.04 36.89 126.92 35.03 120.39 34.07 113.67 34.03 106.75 34.03 99.82 34.94 93.09 36.76 86.55 36.79 86.43 36.72 86.3 36.6 86.25L29.34 83.85C29.13 83.78 28.89 83.91 28.85 84.13L26.35 95.52C26.21 96.14 26.41 96.79 26.87 97.24 29.93 100.18 31.46 103.35 31.47 106.75"/>
<path transform="matrix(1.00023,0,0,1.00023,0,-.047851564)" stroke-width="0" stroke-linecap="butt" stroke-miterlimit="10" stroke-linejoin="miter" fill="none" stroke="#e0a3ca" d="M29.79 106.73C29.79 101.04 25.18 96.43 19.49 96.43 13.8 96.43 9.19 101.04 9.19 106.73 9.19 112.42 13.8 117.03 19.49 117.03 25.18 117.03 29.79 112.42 29.79 106.73"/>
<path transform="matrix(1.00023,0,0,1.00023,0,-.047851564)" stroke-width="0" stroke-linecap="butt" stroke-miterlimit="10" stroke-linejoin="miter" fill="none" stroke="#808080" d="M132.63 136.5C134.72 136.5 135.83 136.49 135.96 136.48 136.12 136.46 136.25 136.32 136.25 136.15V116.05C136.25 115.75 136.5 115.5 136.81 115.5H143.82C144.06 115.5 144.25 115.31 144.25 115.07V109.73C144.25 109.47 144.04 109.26 143.78 109.26 140.2 109.25 136.48 109.24 132.63 109.25 128.77 109.24 125.05 109.25 121.47 109.26 121.21 109.26 121 109.47 121 109.73V115.07C121 115.31 121.2 115.5 121.43 115.5H128.44C128.75 115.5 129 115.75 129 116.05L129.01 136.15C129.01 136.32 129.13 136.46 129.3 136.48 129.43 136.49 130.54 136.5 132.63 136.5"/>
<path transform="matrix(1.00023,0,0,1.00023,0,-.047851564)" stroke-width="0" stroke-linecap="butt" stroke-miterlimit="10" stroke-linejoin="miter" fill="none" stroke="#808080" d="M154.75 109.63C154.75 109.42 154.58 109.25 154.37 109.25H147.87C147.66 109.25 147.49 109.42 147.49 109.63V136.11C147.49 136.32 147.66 136.49 147.87 136.49H154.37C154.58 136.49 154.75 136.32 154.75 136.11V109.63"/>
<path transform="matrix(1.00023,0,0,1.00023,0,-.047851564)" stroke-width="0" stroke-linecap="butt" stroke-miterlimit="10" stroke-linejoin="miter" fill="none" stroke="#808080" d="M173.82 136.25C174.89 136.25 175.49 136.25 175.62 136.24 175.97 136.22 176.28 136 176.41 135.67L181.45 122.87C181.53 122.67 181.82 122.73 181.82 122.94L181.81 136.18C181.81 136.35 181.95 136.49 182.13 136.49L188.64 136.5C188.81 136.5 188.94 136.36 188.94 136.2L188.97 109.92C188.97 109.54 188.66 109.24 188.29 109.24L180.92 109.23C180.53 109.23 180.18 109.46 180.03 109.82 178.74 112.84 176.85 117.48 174.33 123.73 174.16 124.17 173.98 124.39 173.81 124.38 173.65 124.38 173.49 124.17 173.31 123.73 170.8 117.48 168.91 112.84 167.63 109.81 167.47 109.45 167.12 109.22 166.74 109.22H159.37C158.99 109.22 158.69 109.53 158.69 109.9V136.18C158.69 136.35 158.83 136.48 158.99 136.48H165.5C165.68 136.48 165.82 136.34 165.82 136.17V122.93C165.82 122.72 166.11 122.67 166.19 122.86L171.22 135.67C171.36 136 171.67 136.22 172.01 136.24 172.15 136.25 172.75 136.25 173.82 136.25"/>
<path transform="matrix(1.00023,0,0,1.00023,0,-.047851564)" stroke-width="0" stroke-linecap="butt" stroke-miterlimit="10" stroke-linejoin="miter" fill="none" stroke="#808080" d="M192.75 122.88C192.75 131.47 192.77 135.83 192.79 135.95 192.85 136.27 193.13 136.5 193.46 136.5H211.53C211.79 136.5 212 136.29 212 136.03V130.7C212 130.45 211.79 130.24 211.54 130.24H200.68C200.45 130.24 200.26 130.05 200.26 129.82V126.4C200.26 126.18 200.44 126 200.66 126H210.59C210.94 126 211.23 125.73 211.24 125.38 211.25 125.2 211.25 124.37 211.25 122.87 211.25 121.38 211.24 120.54 211.24 120.36 211.23 120.02 210.94 119.74 210.59 119.74L200.66 119.75C200.44 119.75 200.26 119.57 200.26 119.35V115.93C200.26 115.7 200.44 115.51 200.68 115.51L211.54 115.5C211.79 115.5 212 115.3 212 115.04L211.99 109.71C211.99 109.45 211.78 109.24 211.52 109.24L193.45 109.25C193.13 109.25 192.85 109.48 192.78 109.8 192.76 109.92 192.75 114.28 192.75 122.88"/>
<path transform="matrix(1.00023,0,0,1.00023,0,-.047851564)" stroke-width="0" stroke-linecap="butt" stroke-miterlimit="10" stroke-linejoin="miter" fill="none" stroke="#808080" d="M232.67 121.94C236.23 118.87 235.7 113.16 232.19 110.63 229.09 108.39 221.04 109.32 218.12 109.28 217.78 109.27 217.5 109.55 217.5 109.89V135.85C217.5 136.16 217.75 136.42 218.06 136.44 222.46 136.62 226.13 136.58 229.06 136.32 232.43 136.01 234.57 134.61 235.46 132.11 236.89 128.04 235.98 124.91 232.72 122.7 232.46 122.52 232.43 122.15 232.67 121.94"/>
<path transform="matrix(1.00023,0,0,1.00023,0,-.047851564)" stroke-width="0" stroke-linecap="butt" stroke-miterlimit="10" stroke-linejoin="miter" fill="none" stroke="#808080" d="M250.63 128.5C253.17 128.5 254.64 128.51 255.06 128.52 255.45 128.53 255.79 128.78 255.92 129.14L258.41 136C258.52 136.29 258.8 136.49 259.11 136.49H261.56C261.87 136.49 262.09 136.18 261.98 135.88L252.53 109.91C252.42 109.59 252.14 109.36 251.81 109.32 251.47 109.27 251.08 109.25 250.64 109.25 250.2 109.25 249.82 109.27 249.48 109.32 249.15 109.36 248.87 109.59 248.75 109.91L239.28 135.87C239.17 136.17 239.39 136.48 239.7 136.48H242.15C242.46 136.48 242.74 136.29 242.85 135.99L245.35 129.13C245.48 128.77 245.82 128.53 246.21 128.52 246.63 128.5 248.1 128.5 250.63 128.5"/>
<path transform="matrix(1.00023,0,0,1.00023,0,-.047851564)" stroke-width="0" stroke-linecap="butt" stroke-miterlimit="10" stroke-linejoin="miter" fill="none" stroke="#808080" d="M275.72 123.76C281.36 131.77 284.2 135.81 284.24 135.86 284.46 136.22 284.85 136.45 285.28 136.47L287.19 136.53C287.5 136.54 287.75 136.29 287.75 135.98L287.76 109.59C287.76 109.4 287.6 109.24 287.41 109.24H284.83C284.65 109.24 284.51 109.39 284.51 109.57V129.37C284.51 129.61 284.21 129.72 284.06 129.53 283.19 128.48 281.35 125.95 278.54 121.96 272.89 113.94 270.05 109.91 270.02 109.86 269.8 109.5 269.41 109.27 268.98 109.25L267.07 109.19C266.76 109.18 266.51 109.43 266.51 109.74L266.5 136.13C266.5 136.32 266.65 136.48 266.85 136.48H269.43C269.6 136.48 269.75 136.33 269.75 136.15V116.35C269.75 116.11 270.05 116 270.2 116.18 271.07 117.24 272.91 119.77 275.72 123.76"/>
<path transform="matrix(1.00023,0,0,1.00023,0,-.047851564)" stroke-width="0" stroke-linecap="butt" stroke-miterlimit="10" stroke-linejoin="miter" fill="none" stroke="#808080" d="M310.43 109.26C310.34 109.26 310.26 109.3 310.2 109.36L298.78 122.08C298.59 122.29 298.24 122.16 298.24 121.87V109.58C298.24 109.41 298.1 109.27 297.93 109.27H295.06C294.89 109.27 294.75 109.41 294.75 109.58V136.18C294.75 136.35 294.89 136.49 295.06 136.49H297.95C298.12 136.49 298.26 136.35 298.26 136.18V127.66C298.26 127.58 298.29 127.51 298.34 127.45L300.81 124.69C300.94 124.55 301.17 124.56 301.29 124.71L310.53 136.36C310.59 136.44 310.68 136.48 310.77 136.48H314.25C314.51 136.48 314.65 136.18 314.49 135.98L303.57 122.19C303.48 122.08 303.48 121.91 303.58 121.8L314.37 109.78C314.55 109.58 314.4 109.26 314.14 109.26H310.43"/>
<path transform="matrix(1.00023,0,0,1.00023,0,-.047851564)" stroke-width="0" stroke-linecap="butt" stroke-miterlimit="10" stroke-linejoin="miter" fill="none" stroke="#cee8db" d="M44.81 148.31C46.83 151.07 47.51 154.49 46.85 158.57 46.76 159.14 46.96 159.71 47.39 160.1L55.71 167.57C56.13 167.95 56.79 167.87 57.11 167.41L60.85 162.03C61.1 161.67 61.04 161.19 60.71 160.91 57.62 158.25 54.3 154.78 50.75 150.5 49.32 148.79 48.23 147.41 47.47 146.37 46.71 145.32 45.73 143.86 44.53 141.99 41.53 137.31 39.24 133.09 37.65 129.33 37.49 128.93 37.04 128.73 36.63 128.86L30.36 130.78C29.82 130.95 29.55 131.55 29.78 132.06L34.37 142.26C34.6 142.79 35.09 143.16 35.66 143.25 39.74 143.86 42.79 145.54 44.81 148.31"/>
<path transform="matrix(1.00023,0,0,1.00023,0,-.047851564)" stroke-width="0" stroke-linecap="butt" stroke-miterlimit="10" stroke-linejoin="miter" fill="none" stroke="#cee8db" d="M45.49 155.23C45.49 149.54 40.88 144.93 35.19 144.93 29.5 144.93 24.89 149.54 24.89 155.23 24.89 160.92 29.5 165.53 35.19 165.53 40.88 165.53 45.49 160.92 45.49 155.23"/>
<path transform="matrix(1.00023,0,0,1.00023,0,-.047851564)" stroke-width="0" stroke-linecap="butt" stroke-miterlimit="10" stroke-linejoin="miter" fill="none" stroke="#f99dab" d="M80.14 173.89C83.42 174.95 86 177.35 87.86 181.07 88.13 181.58 88.63 181.93 89.21 182L100.42 183.18C100.99 183.24 101.48 182.79 101.47 182.22L101.34 175.61C101.34 175.17 101 174.81 100.57 174.78 96.47 174.44 91.71 173.57 86.28 172.17 84.11 171.62 82.4 171.14 81.16 170.74 79.92 170.33 78.26 169.72 76.17 168.9 70.96 166.84 66.59 164.76 63.07 162.63 62.7 162.4 62.22 162.5 61.95 162.85L57.98 168.12C57.63 168.58 57.77 169.23 58.26 169.51L68.03 175.13C68.54 175.42 69.16 175.44 69.67 175.17 73.37 173.25 76.85 172.83 80.14 173.89"/>
<path transform="matrix(1.00023,0,0,1.00023,0,-.047851564)" stroke-width="0" stroke-linecap="butt" stroke-miterlimit="10" stroke-linejoin="miter" fill="none" stroke="#f7a593" d="M123.74 173.92C127.02 172.87 130.51 173.3 134.19 175.22 134.71 175.49 135.33 175.47 135.83 175.18L145.6 169.58C146.1 169.3 146.23 168.65 145.89 168.19L141.93 162.92C141.66 162.57 141.18 162.47 140.81 162.7 137.29 164.82 132.92 166.9 127.71 168.94 125.62 169.76 123.96 170.37 122.72 170.77 121.48 171.17 119.78 171.65 117.6 172.2 112.18 173.59 107.42 174.45 103.32 174.78 102.89 174.82 102.55 175.17 102.55 175.61L102.41 182.21C102.4 182.78 102.89 183.23 103.46 183.17L114.66 182.01C115.24 181.95 115.75 181.6 116.01 181.08 117.88 177.37 120.45 174.98 123.74 173.92"/>
<path transform="matrix(1.00023,0,0,1.00023,0,-.047851564)" stroke-width="0" stroke-linecap="butt" stroke-miterlimit="10" stroke-linejoin="miter" fill="none" stroke="#f99dab" d="M86.77 185.19C86.77 179.51 82.17 174.91 76.49 174.91 70.81 174.91 66.21 179.51 66.21 185.19 66.21 190.87 70.81 195.47 76.49 195.47 82.17 195.47 86.77 190.87 86.77 185.19"/>
<path transform="matrix(1.00023,0,0,1.00023,0,-.047851564)" stroke-width="0" stroke-linecap="butt" stroke-miterlimit="10" stroke-linejoin="miter" fill="none" stroke="#f7a593" d="M137.74 185.19C137.74 179.52 133.15 174.93 127.48 174.93 121.81 174.93 117.22 179.52 117.22 185.19 117.22 190.86 121.81 195.45 127.48 195.45 133.15 195.45 137.74 190.86 137.74 185.19"/>
<path transform="matrix(1.00023,0,0,1.00023,0,-.047851564)" stroke-width="0" stroke-linecap="butt" stroke-miterlimit="10" stroke-linejoin="miter" fill="none" stroke="#81bcd1" d="M134.32 89.23C135.26 89.24 135.83 89.23 136.04 89.21 136.31 89.18 136.5 88.92 136.43 88.65 135.3 84.45 134.61 82.34 134.36 82.34 134.11 82.34 133.4 84.43 132.22 88.62 132.14 88.89 132.32 89.16 132.59 89.19 132.8 89.21 133.38 89.23 134.32 89.23"/>
<path transform="matrix(1.00023,0,0,1.00023,0,-.047851564)" stroke-width="0" stroke-linecap="butt" stroke-miterlimit="10" stroke-linejoin="miter" fill="none" stroke="#808080" d="M220.97 112.88 221.03 120.66C221.04 120.86 221.2 121.03 221.41 121.02L227.57 120.97C229.9 120.95 231.78 119.08 231.76 116.8V116.54C231.74 114.26 229.83 112.43 227.49 112.45L221.33 112.5C221.13 112.51 220.96 112.67 220.97 112.88"/>
<path transform="matrix(1.00023,0,0,1.00023,0,-.047851564)" stroke-width="0" stroke-linecap="butt" stroke-miterlimit="10" stroke-linejoin="miter" fill="none" stroke="#808080" d="M221.06 124.6 220.94 132.84C220.94 133.05 221.11 133.23 221.33 133.23L227.67 133.32C230.46 133.36 232.74 131.44 232.78 129.02V128.74C232.82 126.33 230.58 124.34 227.79 124.3L221.45 124.21C221.24 124.21 221.06 124.38 221.06 124.6"/>
<path transform="matrix(1.00023,0,0,1.00023,0,-.047851564)" stroke-width="0" stroke-linecap="butt" stroke-miterlimit="10" stroke-linejoin="miter" fill="none" stroke="#808080" d="M246.76 125.11C246.69 125.3 246.83 125.51 247.04 125.51H254.24C254.45 125.51 254.59 125.3 254.52 125.11L250.92 115C250.83 114.73 250.45 114.73 250.36 115L246.76 125.11"/>
</g>
<path transform="matrix(1.00023,0,0,1.00023,0,-.047851564)" d="M86.75 28.29C86.75 33.96 82.16 38.55 76.49 38.55 70.82 38.55 66.23 33.96 66.23 28.29 66.23 22.62 70.82 18.03 76.49 18.03 82.16 18.03 86.75 22.62 86.75 28.29Z" fill="#0379a3"/>
<path transform="matrix(1.00023,0,0,1.00023,0,-.047851564)" d="M137.75 28.28C137.75 33.95 133.16 38.54 127.49 38.54 121.82 38.54 117.23 33.95 117.23 28.28 117.23 22.61 121.82 18.02 127.49 18.02 133.16 18.02 137.75 22.61 137.75 28.28Z" fill="#937a03"/>
<path transform="matrix(1.00023,0,0,1.00023,0,-.047851564)" d="M80.09 39.59C83.39 38.5 85.95 36.03 87.77 32.15 88.02 31.6 88.56 31.24 89.16 31.2L100.35 30.47C100.67 30.46 100.95 30.7 100.97 31.02L101.37 37.23C101.4 37.68 101.04 38.07 100.59 38.08 93.83 38.21 87.2 39.35 80.7 41.48 74.2 43.6 68.19 46.59 62.65 50.48 62.28 50.74 61.76 50.64 61.52 50.26L58.17 45C58 44.74 58.08 44.38 58.35 44.2L67.81 38.18C68.32 37.85 68.97 37.83 69.49 38.12 73.25 40.18 76.78 40.67 80.09 39.59Z" fill="#0379a3"/>
<path transform="matrix(1.00023,0,0,1.00023,0,-.047851564)" d="M123.83 39.59C127.14 40.67 130.69 40.18 134.45 38.11 134.98 37.82 135.63 37.84 136.14 38.16L145.64 44.2C145.91 44.38 145.99 44.74 145.82 45.01L142.47 50.28C142.22 50.66 141.7 50.76 141.33 50.5 135.77 46.61 129.73 43.6 123.2 41.48 116.68 39.35 110.03 38.22 103.25 38.09 102.79 38.08 102.43 37.69 102.46 37.24L102.86 31C102.88 30.68 103.16 30.44 103.48 30.46L114.71 31.18C115.32 31.22 115.85 31.58 116.11 32.13 117.93 36.02 120.51 38.5 123.83 39.59Z" fill="#937a03"/>
<path transform="matrix(1.00023,0,0,1.00023,0,-.047851564)" d="M46.57 66.51C42.52 72.09 39.4 78.11 37.19 84.56 37.04 84.99 36.56 85.21 36.13 85.05L30.29 82.75C29.99 82.63 29.84 82.29 29.96 81.99L34.1 71.47C34.32 70.9 34.84 70.5 35.44 70.43 39.72 69.88 42.89 68.18 44.94 65.34 47 62.49 47.62 58.95 46.8 54.72 46.68 54.12 46.9 53.51 47.37 53.12L56.06 45.89C56.31 45.68 56.68 45.72 56.89 45.96L60.9 50.79C61.19 51.14 61.13 51.67 60.77 51.95 55.33 56.07 50.6 60.92 46.57 66.51Z" fill="#8d312e"/>
<path transform="matrix(1.00023,0,0,1.00023,0,-.047851564)" d="M45.55 58.26C45.55 63.94 40.95 68.54 35.27 68.54 29.59 68.54 24.99 63.94 24.99 58.26 24.99 52.58 29.59 47.98 35.27 47.98 40.95 47.98 45.55 52.58 45.55 58.26Z" fill="#8d312e"/>
<path transform="matrix(1.00023,0,0,1.00023,0,-.047851564)" d="M56.93 68.34 109.52 104.91C109.75 105.07 109.73 105.42 109.48 105.56 102.29 109.6 91.04 115.97 75.72 124.66 75.58 124.74 75.44 124.77 75.3 124.74 75.14 124.71 75.02 124.63 74.94 124.5 74.71 124.11 74.71 123.81 74.96 123.59 82 117.26 88.95 111.03 95.81 104.92 96.01 104.74 96.01 104.44 95.81 104.26L56.26 68.76C56.22 68.73 56.22 68.67 56.25 68.63L56.4 68.42C56.52 68.25 56.76 68.22 56.93 68.34Z"/>
<path transform="matrix(1.00023,0,0,1.00023,0,-.047851564)" d="M134.34 73.24C135.84 73.24 137.28 73.24 138.65 73.26 138.82 73.26 138.97 73.37 139.02 73.53L147.82 99.49C147.99 100 147.61 100.52 147.08 100.52H141.39C140.73 100.52 140.14 100.09 139.93 99.46L138.62 95.6C138.49 95.23 138.15 94.99 137.77 94.99 137.33 94.99 136.18 94.99 134.34 94.99 132.49 94.99 131.35 94.99 130.91 94.99 130.52 94.99 130.18 95.23 130.05 95.6L128.74 99.46C128.53 100.09 127.95 100.52 127.28 100.52H121.59C121.06 100.52 120.68 100 120.85 99.49L129.65 73.53C129.71 73.37 129.86 73.26 130.02 73.26 131.4 73.24 132.84 73.24 134.34 73.24M134.32 89.23C135.26 89.24 135.83 89.23 136.04 89.21 136.31 89.18 136.5 88.92 136.43 88.65 135.3 84.45 134.61 82.34 134.36 82.34 134.11 82.34 133.4 84.43 132.22 88.62 132.14 88.89 132.32 89.16 132.59 89.19 132.8 89.21 133.38 89.23 134.32 89.23Z" fill="#0379a3"/>
<path transform="matrix(1.00023,0,0,1.00023,0,-.047851564)" d="M151.13 73.24H157.61C157.83 73.24 158 73.41 158 73.63V93.84C158 94.06 158.17 94.23 158.39 94.23H168.61C168.83 94.23 169 94.4 169 94.62V100.12C169 100.34 168.83 100.51 168.61 100.51H151.13C150.91 100.51 150.74 100.34 150.74 100.12V73.63C150.74 73.41 150.91 73.24 151.13 73.24Z" fill="#0379a3"/>
<path transform="matrix(1.00023,0,0,1.00023,0,-.047851564)" d="M183.82 94.29C188.58 94.29 188.08 89.72 188.08 85.8 188.07 82.06 188.07 78.03 188.08 73.71 188.08 73.46 188.29 73.25 188.55 73.25H194.96C195.23 73.25 195.45 73.46 195.45 73.73 195.47 76.91 195.48 82.01 195.47 89.03 195.46 92.06 195.11 94.16 194.42 95.33 192.11 99.25 188.36 100.77 183.82 100.77 179.27 100.77 175.53 99.24 173.22 95.32 172.52 94.14 172.18 92.04 172.17 89.02 172.18 82 172.19 76.9 172.21 73.72 172.21 73.45 172.43 73.24 172.7 73.24H179.11C179.37 73.24 179.58 73.45 179.58 73.7 179.59 78.02 179.59 82.06 179.57 85.8 179.56 89.72 179.05 94.29 183.82 94.29Z" fill="#0379a3"/>
<path transform="matrix(1.00023,0,0,1.00023,0,-.047851564)" d="M214.46 88.39C214.62 88.39 214.78 88.17 214.96 87.74 217.47 81.49 219.36 76.85 220.64 73.82 220.79 73.46 221.14 73.23 221.53 73.23H228.9C229.28 73.23 229.58 73.53 229.58 73.91V100.19C229.58 100.36 229.45 100.49 229.28 100.49H222.77C222.59 100.49 222.45 100.35 222.45 100.18V86.94C222.45 86.73 222.16 86.67 222.08 86.87L217.05 99.68C216.92 100.01 216.61 100.23 216.26 100.25 216.12 100.26 215.52 100.26 214.45 100.26 213.39 100.26 212.79 100.26 212.65 100.25 212.3 100.23 212 100.01 211.86 99.68L206.82 86.88C206.74 86.68 206.44 86.74 206.45 86.95L206.46 100.19C206.46 100.36 206.32 100.5 206.14 100.5L199.63 100.51C199.47 100.51 199.33 100.37 199.33 100.21L199.3 73.93C199.3 73.55 199.6 73.25 199.98 73.25L207.35 73.24C207.74 73.24 208.09 73.47 208.24 73.83 209.52 76.85 211.42 81.49 213.94 87.74 214.11 88.18 214.29 88.39 214.46 88.39Z" fill="#0379a3"/>
<path transform="matrix(1.00023,0,0,1.00023,0,-.047851564)" d="M247.88 85.11C248.21 85.59 248.59 86.16 249.01 86.82 249.12 87 249.41 86.92 249.41 86.7V73.58C249.41 73.38 249.57 73.22 249.77 73.22H256.44C256.64 73.22 256.81 73.39 256.81 73.59V99.91C256.81 100.23 256.55 100.49 256.23 100.49H251.29C250.91 100.49 250.55 100.3 250.34 99.99 246.28 94.11 243.66 90.31 242.47 88.59 242.14 88.11 241.76 87.54 241.34 86.88 241.23 86.7 240.94 86.78 240.94 87V100.12C240.94 100.32 240.78 100.48 240.58 100.48H233.91C233.71 100.48 233.54 100.32 233.54 100.11V73.79C233.54 73.47 233.8 73.21 234.12 73.21H239.06C239.44 73.21 239.8 73.4 240.01 73.71 244.07 79.6 246.69 83.4 247.88 85.11Z" fill="#0379a3"/>
<path transform="matrix(1.00023,0,0,1.00023,0,-.047851564)" d="M268 100.13C268 100.35 267.83 100.52 267.61 100.52H261.13C260.91 100.52 260.74 100.35 260.74 100.13V73.63C260.74 73.41 260.91 73.24 261.13 73.24H267.61C267.83 73.24 268 73.41 268 73.63V100.13Z" fill="#0379a3"/>
<path transform="matrix(1.00023,0,0,1.00023,0,-.047851564)" d="M134.36 82.34C134.61 82.34 135.3 84.45 136.43 88.65 136.5 88.92 136.31 89.18 136.04 89.21 135.83 89.23 135.26 89.24 134.32 89.23 133.38 89.23 132.8 89.21 132.59 89.19 132.32 89.16 132.14 88.89 132.22 88.62 133.4 84.43 134.11 82.34 134.36 82.34Z" fill="#ffffff"/>
<path transform="matrix(1.00023,0,0,1.00023,0,-.047851564)" d="M34.03 106.75C34.07 113.67 35.03 120.39 36.89 126.92 36.92 127.04 36.85 127.17 36.73 127.22L29.49 129.67C29.27 129.74 29.04 129.61 28.99 129.39L26.42 118.02C26.28 117.4 26.47 116.74 26.93 116.29 29.97 113.34 31.48 110.16 31.47 106.75 31.46 103.35 29.93 100.18 26.87 97.24 26.41 96.79 26.21 96.14 26.35 95.52L28.85 84.13C28.89 83.91 29.13 83.78 29.34 83.85L36.6 86.25C36.72 86.3 36.79 86.43 36.76 86.55 34.94 93.09 34.03 99.82 34.03 106.75Z" fill="#c04794"/>
<path transform="matrix(1.00023,0,0,1.00023,0,-.047851564)" d="M29.79 106.73C29.79 112.42 25.18 117.03 19.49 117.03 13.8 117.03 9.19 112.42 9.19 106.73 9.19 101.04 13.8 96.43 19.49 96.43 25.18 96.43 29.79 101.04 29.79 106.73Z" fill="#c04794"/>
<path transform="matrix(1.00023,0,0,1.00023,0,-.047851564)" d="M132.63 109.25C136.48 109.24 140.2 109.25 143.78 109.26 144.04 109.26 144.25 109.47 144.25 109.73V115.07C144.25 115.31 144.06 115.5 143.82 115.5H136.81C136.5 115.5 136.25 115.75 136.25 116.05V136.15C136.25 136.32 136.12 136.46 135.96 136.48 135.83 136.49 134.72 136.5 132.63 136.5 130.54 136.5 129.43 136.49 129.3 136.48 129.13 136.46 129.01 136.32 129.01 136.15L129 116.05C129 115.75 128.75 115.5 128.44 115.5H121.43C121.2 115.5 121 115.31 121 115.07V109.73C121 109.47 121.21 109.26 121.47 109.26 125.05 109.25 128.77 109.24 132.63 109.25Z"/>
<path transform="matrix(1.00023,0,0,1.00023,0,-.047851564)" d="M154.75 136.11C154.75 136.32 154.58 136.49 154.37 136.49H147.87C147.66 136.49 147.49 136.32 147.49 136.11V109.63C147.49 109.42 147.66 109.25 147.87 109.25H154.37C154.58 109.25 154.75 109.42 154.75 109.63V136.11Z"/>
<path transform="matrix(1.00023,0,0,1.00023,0,-.047851564)" d="M173.82 136.25C172.75 136.25 172.15 136.25 172.01 136.24 171.67 136.22 171.36 136 171.22 135.67L166.19 122.86C166.11 122.67 165.82 122.72 165.82 122.93V136.17C165.82 136.34 165.68 136.48 165.5 136.48H158.99C158.83 136.48 158.69 136.35 158.69 136.18V109.9C158.69 109.53 158.99 109.22 159.37 109.22H166.74C167.12 109.22 167.47 109.45 167.63 109.81 168.91 112.84 170.8 117.48 173.31 123.73 173.49 124.17 173.65 124.38 173.81 124.38 173.98 124.39 174.16 124.17 174.33 123.73 176.85 117.48 178.74 112.84 180.03 109.82 180.18 109.46 180.53 109.23 180.92 109.23L188.29 109.24C188.66 109.24 188.97 109.54 188.97 109.92L188.94 136.2C188.94 136.36 188.81 136.5 188.64 136.5L182.13 136.49C181.95 136.49 181.81 136.35 181.81 136.18L181.82 122.94C181.82 122.73 181.53 122.67 181.45 122.87L176.41 135.67C176.28 136 175.97 136.22 175.62 136.24 175.49 136.25 174.89 136.25 173.82 136.25Z"/>
<path transform="matrix(1.00023,0,0,1.00023,0,-.047851564)" d="M211.25 122.87C211.25 124.37 211.25 125.2 211.24 125.38 211.23 125.73 210.94 126 210.59 126H200.66C200.44 126 200.26 126.18 200.26 126.4V129.82C200.26 130.05 200.45 130.24 200.68 130.24H211.54C211.79 130.24 212 130.45 212 130.7V136.03C212 136.29 211.79 136.5 211.53 136.5H193.46C193.13 136.5 192.85 136.27 192.79 135.95 192.77 135.83 192.75 131.47 192.75 122.88 192.75 114.28 192.76 109.92 192.78 109.8 192.85 109.48 193.13 109.25 193.45 109.25L211.52 109.24C211.78 109.24 211.99 109.45 211.99 109.71L212 115.04C212 115.3 211.79 115.5 211.54 115.5L200.68 115.51C200.44 115.51 200.26 115.7 200.26 115.93V119.35C200.26 119.57 200.44 119.75 200.66 119.75L210.59 119.74C210.94 119.74 211.23 120.02 211.24 120.36 211.24 120.54 211.25 121.38 211.25 122.87Z"/>
<path transform="matrix(1.00023,0,0,1.00023,0,-.047851564)" d="M232.72 122.7C235.98 124.91 236.89 128.04 235.46 132.11 234.57 134.61 232.43 136.01 229.06 136.32 226.13 136.58 222.46 136.62 218.06 136.44 217.75 136.42 217.5 136.16 217.5 135.85V109.89C217.5 109.55 217.78 109.27 218.12 109.28 221.04 109.32 229.09 108.39 232.19 110.63 235.7 113.16 236.23 118.87 232.67 121.94 232.43 122.15 232.46 122.52 232.72 122.7M220.97 112.88 221.03 120.66C221.04 120.86 221.2 121.03 221.41 121.02L227.57 120.97C229.9 120.95 231.78 119.08 231.76 116.8V116.54C231.74 114.26 229.83 112.43 227.49 112.45L221.33 112.5C221.13 112.51 220.96 112.67 220.97 112.88M221.06 124.6 220.94 132.84C220.94 133.05 221.11 133.23 221.33 133.23L227.67 133.32C230.46 133.36 232.74 131.44 232.78 129.02V128.74C232.82 126.33 230.58 124.34 227.79 124.3L221.45 124.21C221.24 124.21 221.06 124.38 221.06 124.6Z"/>
<path transform="matrix(1.00023,0,0,1.00023,0,-.047851564)" d="M250.64 109.25C251.08 109.25 251.47 109.27 251.81 109.32 252.14 109.36 252.42 109.59 252.53 109.91L261.98 135.88C262.09 136.18 261.87 136.49 261.56 136.49H259.11C258.8 136.49 258.52 136.29 258.41 136L255.92 129.14C255.79 128.78 255.45 128.53 255.06 128.52 254.64 128.51 253.17 128.5 250.63 128.5 248.1 128.5 246.63 128.5 246.21 128.52 245.82 128.53 245.48 128.77 245.35 129.13L242.85 135.99C242.74 136.29 242.46 136.48 242.15 136.48H239.7C239.39 136.48 239.17 136.17 239.28 135.87L248.75 109.91C248.87 109.59 249.15 109.36 249.48 109.32 249.82 109.27 250.2 109.25 250.64 109.25M246.76 125.11C246.69 125.3 246.83 125.51 247.04 125.51H254.24C254.45 125.51 254.59 125.3 254.52 125.11L250.92 115C250.83 114.73 250.45 114.73 250.36 115L246.76 125.11Z"/>
<path transform="matrix(1.00023,0,0,1.00023,0,-.047851564)" d="M275.72 123.76C272.91 119.77 271.07 117.24 270.2 116.18 270.05 116 269.75 116.11 269.75 116.35V136.15C269.75 136.33 269.6 136.48 269.43 136.48H266.85C266.65 136.48 266.5 136.32 266.5 136.13L266.51 109.74C266.51 109.43 266.76 109.18 267.07 109.19L268.98 109.25C269.41 109.27 269.8 109.5 270.02 109.86 270.05 109.91 272.89 113.94 278.54 121.96 281.35 125.95 283.19 128.48 284.06 129.53 284.21 129.72 284.51 129.61 284.51 129.37V109.57C284.51 109.39 284.65 109.24 284.83 109.24H287.41C287.6 109.24 287.76 109.4 287.76 109.59L287.75 135.98C287.75 136.29 287.5 136.54 287.19 136.53L285.28 136.47C284.85 136.45 284.46 136.22 284.24 135.86 284.2 135.81 281.36 131.77 275.72 123.76Z"/>
<path transform="matrix(1.00023,0,0,1.00023,0,-.047851564)" d="M310.43 109.26H314.14C314.4 109.26 314.55 109.58 314.37 109.78L303.58 121.8C303.48 121.91 303.48 122.08 303.57 122.19L314.49 135.98C314.65 136.18 314.51 136.48 314.25 136.48H310.77C310.68 136.48 310.59 136.44 310.53 136.36L301.29 124.71C301.17 124.56 300.94 124.55 300.81 124.69L298.34 127.45C298.29 127.51 298.26 127.58 298.26 127.66V136.18C298.26 136.35 298.12 136.49 297.95 136.49H295.06C294.89 136.49 294.75 136.35 294.75 136.18V109.58C294.75 109.41 294.89 109.27 295.06 109.27H297.93C298.1 109.27 298.24 109.41 298.24 109.58V121.87C298.24 122.16 298.59 122.29 298.78 122.08L310.2 109.36C310.26 109.3 310.34 109.26 310.43 109.26Z"/>
<path transform="matrix(1.00023,0,0,1.00023,0,-.047851564)" d="M220.97 112.88C220.96 112.67 221.13 112.51 221.33 112.5L227.49 112.45C229.83 112.43 231.74 114.26 231.76 116.54V116.8C231.78 119.08 229.9 120.95 227.57 120.97L221.41 121.02C221.2 121.03 221.04 120.86 221.03 120.66L220.97 112.88Z" fill="#ffffff"/>
<path transform="matrix(1.00023,0,0,1.00023,0,-.047851564)" d="M246.76 125.11 250.36 115C250.45 114.73 250.83 114.73 250.92 115L254.52 125.11C254.59 125.3 254.45 125.51 254.24 125.51H247.04C246.83 125.51 246.69 125.3 246.76 125.11Z" fill="#ffffff"/>
<path transform="matrix(1.00023,0,0,1.00023,0,-.047851564)" d="M221.06 124.6C221.06 124.38 221.24 124.21 221.45 124.21L227.79 124.3C230.58 124.34 232.82 126.33 232.78 128.74V129.02C232.74 131.44 230.46 133.36 227.67 133.32L221.33 133.23C221.11 133.23 220.94 133.05 220.94 132.84L221.06 124.6Z" fill="#ffffff"/>
<path transform="matrix(1.00023,0,0,1.00023,0,-.047851564)" d="M47.47 146.37C48.23 147.41 49.32 148.79 50.75 150.5 54.3 154.78 57.62 158.25 60.71 160.91 61.04 161.19 61.1 161.67 60.85 162.03L57.11 167.41C56.79 167.87 56.13 167.95 55.71 167.57L47.39 160.1C46.96 159.71 46.76 159.14 46.85 158.57 47.51 154.49 46.83 151.07 44.81 148.31 42.79 145.54 39.74 143.86 35.66 143.25 35.09 143.16 34.6 142.79 34.37 142.26L29.78 132.06C29.55 131.55 29.82 130.95 30.36 130.78L36.63 128.86C37.04 128.73 37.49 128.93 37.65 129.33 39.24 133.09 41.53 137.31 44.53 141.99 45.73 143.86 46.71 145.32 47.47 146.37Z" fill="#9cd1b7"/>
<path transform="matrix(1.00023,0,0,1.00023,0,-.047851564)" d="M45.49 155.23C45.49 160.92 40.88 165.53 35.19 165.53 29.5 165.53 24.89 160.92 24.89 155.23 24.89 149.54 29.5 144.93 35.19 144.93 40.88 144.93 45.49 149.54 45.49 155.23Z" fill="#9cd1b7"/>
<path transform="matrix(1.00023,0,0,1.00023,0,-.047851564)" d="M80.14 173.89C76.85 172.83 73.37 173.25 69.67 175.17 69.16 175.44 68.54 175.42 68.03 175.13L58.26 169.51C57.77 169.23 57.63 168.58 57.98 168.12L61.95 162.85C62.22 162.5 62.7 162.4 63.07 162.63 66.59 164.76 70.96 166.84 76.17 168.9 78.26 169.72 79.92 170.33 81.16 170.74 82.4 171.14 84.11 171.62 86.28 172.17 91.71 173.57 96.47 174.44 100.57 174.78 101 174.81 101.34 175.17 101.34 175.61L101.47 182.22C101.48 182.79 100.99 183.24 100.42 183.18L89.21 182C88.63 181.93 88.13 181.58 87.86 181.07 86 177.35 83.42 174.95 80.14 173.89Z" fill="#f23b57"/>
<path transform="matrix(1.00023,0,0,1.00023,0,-.047851564)" d="M123.74 173.92C120.45 174.98 117.88 177.37 116.01 181.08 115.75 181.6 115.24 181.95 114.66 182.01L103.46 183.17C102.89 183.23 102.4 182.78 102.41 182.21L102.55 175.61C102.55 175.17 102.89 174.82 103.32 174.78 107.42 174.45 112.18 173.59 117.6 172.2 119.78 171.65 121.48 171.17 122.72 170.77 123.96 170.37 125.62 169.76 127.71 168.94 132.92 166.9 137.29 164.82 140.81 162.7 141.18 162.47 141.66 162.57 141.93 162.92L145.89 168.19C146.23 168.65 146.1 169.3 145.6 169.58L135.83 175.18C135.33 175.47 134.71 175.49 134.19 175.22 130.51 173.3 127.02 172.87 123.74 173.92Z" fill="#ef4b27"/>
<path transform="matrix(1.00023,0,0,1.00023,0,-.047851564)" d="M86.77 185.19C86.77 190.87 82.17 195.47 76.49 195.47 70.81 195.47 66.21 190.87 66.21 185.19 66.21 179.51 70.81 174.91 76.49 174.91 82.17 174.91 86.77 179.51 86.77 185.19Z" fill="#f23b57"/>
<path transform="matrix(1.00023,0,0,1.00023,0,-.047851564)" d="M137.74 185.19C137.74 190.86 133.15 195.45 127.48 195.45 121.81 195.45 117.22 190.86 117.22 185.19 117.22 179.52 121.81 174.93 127.48 174.93 133.15 174.93 137.74 179.52 137.74 185.19Z" fill="#ef4b27"/>
</svg>